<svg xmlns="http://www.w3.org/2000/svg" viewBox="0 0 100 100" width="100" height="100">
  <defs>
    <linearGradient id="logoGradient" x1="0%" y1="0%" x2="100%" y2="100%">
      <stop offset="0%" style="stop-color:#22d3ee;stop-opacity:1" />
      <stop offset="100%" style="stop-color:#0891b2;stop-opacity:1" />
    </linearGradient>
    <filter id="glow">
      <feGaussianBlur stdDeviation="2" result="coloredBlur"/>
      <feMerge>
        <feMergeNode in="coloredBlur"/>
        <feMergeNode in="SourceGraphic"/>
      </feMerge>
    </filter>
  </defs>
  <circle cx="50" cy="50" r="48" fill="url(#logoGradient)" filter="url(#glow)" opacity="0.9"/>
  <rect x="20" y="25" width="60" height="40" rx="4" fill="#0f172a" stroke="#22d3ee" stroke-width="2"/>
  <polyline points="25,45 35,45 40,35 45,55 50,45 55,45 60,40 65,50 70,45 75,45" fill="none" stroke="#22d3ee" stroke-width="2" stroke-linecap="round" stroke-linejoin="round"/>
  <rect x="42" y="65" width="16" height="8" rx="1" fill="#0f172a" stroke="#22d3ee" stroke-width="1.5"/>
  <rect x="35" y="73" width="30" height="4" rx="2" fill="#0f172a" stroke="#22d3ee" stroke-width="1.5"/>
  <path d="M 20 35 Q 15 35 15 40 Q 15 45 20 45" fill="none" stroke="#22d3ee" stroke-width="1.5" opacity="0.6"/>
  <path d="M 80 35 Q 85 35 85 40 Q 85 45 80 45" fill="none" stroke="#22d3ee" stroke-width="1.5" opacity="0.6"/>
  <circle cx="30" cy="70" r="2" fill="#10b981"/>
  <circle cx="38" cy="70" r="2" fill="#f59e0b"/>
  <circle cx="46" cy="70" r="2" fill="#ef4444"/>
</svg>
